<svg xmlns="http://www.w3.org/2000/svg" xmlns:xlink="http://www.w3.org/1999/xlink" width="44" height="44" viewBox="0 0 44 44"><defs><style>.a{fill:#999;}.b{clip-path:url(#a);}.c,.d{fill:#00b696;}.c{opacity:0.55;}.e{opacity:0;}.f,.g{fill:#fff;}.g{opacity:0.27;}</style><clipPath id="a"><rect class="a" width="44" height="44" transform="translate(72.252 15)"/></clipPath></defs><g class="b" transform="translate(-72.252 -15)"><g transform="translate(76.575 15)"><path class="c" d="M9.2,9.37V5.354h3.246V9.37a1.623,1.623,0,1,1-3.246,0Z"/><path class="c" d="M22.958,9.37V5.354H26.2V9.37a1.623,1.623,0,1,1-3.246,0Z"/><path class="d" d="M35.326,7.628v34.1A2.273,2.273,0,0,1,33.053,44H2.274A2.26,2.26,0,0,1,0,41.735V7.628A2.285,2.285,0,0,1,2.045,5.364a1.841,1.841,0,0,1,.229-.009H8.591v4.52a2.023,2.023,0,0,0,2.237,1.705,2.023,2.023,0,0,0,2.237-1.705V5.354h9.288v4.52A2.023,2.023,0,0,0,24.59,11.58a2.023,2.023,0,0,0,2.237-1.705V5.354h6.235A2.271,2.271,0,0,1,35.326,7.628Z"/><g class="e"><path class="d" d="M9.2,5.354v2.2h3.246v-2.2Zm23.921,0h-6.3v2.2h6.271a.389.389,0,0,1,.1.293v6.326H2.2V7.848a.371.371,0,0,1,.1-.293h6.28v-2.2H2.265a1.917,1.917,0,0,0-.229.009A2.412,2.412,0,0,0,0,7.848v8.527H35.391V7.848A2.381,2.381,0,0,0,33.117,5.354Zm-6.913,0H22.958v2.2H26.2Zm-3.86,0H13.056v2.2h9.288Z"/><path class="f" d="M13.056,5.354v4.52a2.023,2.023,0,0,1-2.237,1.705A2.023,2.023,0,0,1,8.582,9.875V5.354H9.2V9.37a1.623,1.623,0,1,0,3.246,0V5.354Z"/></g><path class="d" d="M26.2,1.623V9.37a1.623,1.623,0,1,1-3.246,0V1.623a1.623,1.623,0,0,1,3.246,0Z"/><path class="d" d="M12.442,1.623V9.37a1.623,1.623,0,1,1-3.246,0V1.623a1.623,1.623,0,0,1,3.246,0Z"/><path class="g" d="M26.818,5.354v4.52a2.023,2.023,0,0,1-2.237,1.705,2.023,2.023,0,0,1-2.237-1.705V5.354h.614V9.37a1.623,1.623,0,1,0,3.246,0V5.354Z"/><path class="f" d="M29.99,29.321H27.4a.74.74,0,0,1-.743-.743V21.445A.74.74,0,0,1,27.4,20.7H29.99a.74.74,0,0,1,.743.743v7.133A.74.74,0,0,1,29.99,29.321Z"/><path class="f" d="M7.986,40.03H5.4a.74.74,0,0,1-.743-.743V32.154a.74.74,0,0,1,.743-.743H7.995a.74.74,0,0,1,.743.743v7.133A.759.759,0,0,1,7.986,40.03Z"/><path class="f" d="M22.656,40.03H20.061a.74.74,0,0,1-.743-.743V32.154a.74.74,0,0,1,.743-.743h2.595a.74.74,0,0,1,.743.743v7.133A.745.745,0,0,1,22.656,40.03Z"/><path class="f" d="M29.99,40.03H27.4a.74.74,0,0,1-.743-.743V32.154a.74.74,0,0,1,.743-.743H29.99a.74.74,0,0,1,.743.743v7.133A.745.745,0,0,1,29.99,40.03Z"/><path class="f" d="M7.986,29.321H5.4a.74.74,0,0,1-.743-.743V21.445A.74.74,0,0,1,5.4,20.7H7.995a.74.74,0,0,1,.743.743v7.133A.753.753,0,0,1,7.986,29.321Z"/><path class="f" d="M15.321,29.321H12.726a.74.74,0,0,1-.743-.743V21.445a.74.74,0,0,1,.743-.743h2.595a.74.74,0,0,1,.743.743v7.133A.74.74,0,0,1,15.321,29.321Z"/><rect class="f" width="35.363" height="2.2" transform="translate(-0.037 14.184)"/></g></g></svg>