<svg xmlns="http://www.w3.org/2000/svg" xmlns:xlink="http://www.w3.org/1999/xlink" width="44" height="44" viewBox="0 0 44 44"><defs><style>.a{fill:#999;}.b{clip-path:url(#a);}.c{fill:#00b696;}</style><clipPath id="a"><rect class="a" width="44" height="44" transform="translate(72.252 15)"/></clipPath></defs><g class="b" transform="translate(-72.252 -15)"><g transform="translate(72.252 15)"><path class="c" d="M41.132,11.254,38.095,18.18a1.5,1.5,0,0,1-2.649.179L25.637,2.3a1.5,1.5,0,0,0-2.59.06l-9,16.408a1.5,1.5,0,0,1-2.513.174L10.1,17.022a1.5,1.5,0,0,1-.3-.894V1.5A1.5,1.5,0,0,0,8.311,0H1.5A1.5,1.5,0,0,0,0,1.5V42.5A1.5,1.5,0,0,0,1.5,44H42.5A1.5,1.5,0,0,0,44,42.5V11.855a1.5,1.5,0,0,0-1.5-1.5h0a1.5,1.5,0,0,0-1.371.9ZM8.77,37.217H8.388a1.5,1.5,0,0,1-1.5-1.509l.063-8.19a1.5,1.5,0,0,1,1.5-1.485H8.77a1.5,1.5,0,0,1,1.5,1.5v8.19A1.5,1.5,0,0,1,8.77,37.217Z"/></g></g></svg>