<svg xmlns="http://www.w3.org/2000/svg" xmlns:xlink="http://www.w3.org/1999/xlink" width="44" height="44" viewBox="0 0 44 44"><defs><style>.a{fill:#6190e8;}.b{clip-path:url(#a);}.c{fill:none;stroke:#999;stroke-miterlimit:10;stroke-width:2.095px;}</style><clipPath id="a"><rect class="a" width="44" height="44" transform="translate(72.252 15)"/></clipPath></defs><g class="b" transform="translate(-72.252 -15)"><g transform="translate(72.252 15)"><path class="c" d="M39.679,1.048H4.321A3.275,3.275,0,0,0,1.048,4.321h0V39.67a3.282,3.282,0,0,0,3.274,3.283H39.67a3.282,3.282,0,0,0,3.283-3.274h0V4.321A3.275,3.275,0,0,0,39.679,1.048ZM22,6.635a6.111,6.111,0,1,1-6.111,6.111A6.107,6.107,0,0,1,22,6.635ZM11,32.563A10.767,10.767,0,0,1,21.956,22,10.767,10.767,0,0,1,32.913,32.563C32.913,38.4,11,38.4,11,32.563Z"/><circle class="c" cx="6.111" cy="6.111" r="6.111" transform="translate(15.889 6.635)"/><path class="c" d="M32.913,32.563C32.913,38.4,11,38.4,11,32.563A10.767,10.767,0,0,1,21.956,22,10.767,10.767,0,0,1,32.913,32.563Z"/><circle class="c" cx="6.111" cy="6.111" r="6.111" transform="translate(15.889 6.635)"/><path class="c" d="M32.913,32.563C32.913,38.4,11,38.4,11,32.563A10.767,10.767,0,0,1,21.956,22,10.767,10.767,0,0,1,32.913,32.563Z"/></g></g></svg>