<?xml version="1.0" encoding="utf-8"?>
<!-- Generator: Adobe Illustrator 23.0.0, SVG Export Plug-In . SVG Version: 6.00 Build 0)  -->
<svg version="1.1" id="图层_1" xmlns="http://www.w3.org/2000/svg" xmlns:xlink="http://www.w3.org/1999/xlink" x="0px" y="0px"
	 viewBox="0 0 60 60" style="enable-background:new 0 0 60 60;" xml:space="preserve">
<style type="text/css">
	.st0{fill:none;stroke:#048C73;stroke-width:1.5;stroke-miterlimit:10;}
	.st1{fill:#80C5B8;stroke:#048C73;stroke-width:1.5;stroke-miterlimit:10;}
</style>
<path class="st0" d="M36.5,59.3h-12c-1.1,0-2-0.9-2-2V2.8c0-1.1,0.9-2,2-2h12c1.1,0,2,0.9,2,2v54.4C38.5,58.4,37.6,59.3,36.5,59.3z"
	/>
<rect x="22.5" y="10.5" class="st1" width="16" height="10"/>
<path class="st0" d="M14.8,59.3h-12c-1.1,0-2-0.9-2-2v-49c0-1.1,0.9-2,2-2h12c1.1,0,2,0.9,2,2v49C16.8,58.3,15.9,59.3,14.8,59.3z"/>
<rect x="0.7" y="16.3" class="st1" width="16" height="10"/>
<path class="st0" d="M57.3,59.3h-12c-1.1,0-2-0.9-2-2v-46c0-1.1,0.9-2,2-2h12c1.1,0,2,0.9,2,2v46C59.3,58.3,58.3,59.3,57.3,59.3z"/>
<rect x="43.3" y="19.3" class="st1" width="16" height="10"/>
</svg>
