<?xml version="1.0" encoding="utf-8"?>
<!-- Generator: Adobe Illustrator 23.0.0, SVG Export Plug-In . SVG Version: 6.00 Build 0)  -->
<svg version="1.1" id="图层_1" xmlns="http://www.w3.org/2000/svg" xmlns:xlink="http://www.w3.org/1999/xlink" x="0px" y="0px"
	 viewBox="0 0 60 60" style="enable-background:new 0 0 60 60;" xml:space="preserve">
<style type="text/css">
	.st0{fill:none;stroke:#048C73;stroke-width:1.5;stroke-miterlimit:10;}
	.st1{fill:#80C5B8;stroke:#048C73;stroke-width:1.5;stroke-miterlimit:10;}
	.st2{fill:none;stroke:#048C73;stroke-width:1.5;stroke-linecap:round;stroke-miterlimit:10;}
	.st3{fill:none;stroke:#048C73;stroke-width:1.5;stroke-linecap:round;stroke-linejoin:round;stroke-miterlimit:10;}
</style>
<path class="st0" d="M57,59H3c-1.1,0-2-0.9-2-2V3c0-1.1,0.9-2,2-2h54c1.1,0,2,0.9,2,2v54C59,58.1,58.1,59,57,59z"/>
<polygon class="st1" points="54,55 57.5,51.5 35.8,29.8 28.5,29.5 28.8,36.8 50.5,58.5 "/>
<line class="st0" x1="22" y1="10.5" x2="52" y2="10.5"/>
<line class="st0" x1="22" y1="23.5" x2="52" y2="23.5"/>
<polyline class="st2" points="8.5,11.3 11.6,13.5 16,9 "/>
<polyline class="st2" points="8.5,23.3 11.6,25.5 16,21 "/>
<polyline class="st2" points="8.5,35.3 11.6,37.5 16,33 "/>
<polyline class="st3" points="8.5,47.3 11.6,49.5 16,45 "/>
</svg>
