<svg xmlns="http://www.w3.org/2000/svg" xmlns:xlink="http://www.w3.org/1999/xlink" width="32" height="32" viewBox="0 0 32 32"><defs><style>.a{fill:#fff;}.b{clip-path:url(#a);}.c{fill:#00b696;}</style><clipPath id="a"><rect class="a" width="32" height="32" transform="translate(52 268)"/></clipPath></defs><g transform="translate(-52 -268)"><g class="b"><path class="c" d="M31.43,7.607,17.244.333a2.919,2.919,0,0,0-2.676,0L.562,7.607a1.049,1.049,0,0,0,0,1.856l1.333.693v6.88a1.725,1.725,0,1,0,1.671,0V11.013L7.281,12.96V20.5a2.083,2.083,0,0,0,1.46,1.99L13.179,23.9a9.164,9.164,0,0,0,5.457.037l4.768-1.46a2.085,2.085,0,0,0,1.482-1.99l.029-7.688,6.518-3.343A1.041,1.041,0,0,0,32,8.532a1.056,1.056,0,0,0-.572-.925ZM23.209,20.5a.416.416,0,0,1-.294.4l-4.768,1.46a7.515,7.515,0,0,1-4.469-.029L9.252,20.9a.418.418,0,0,1-.292-.4V13.811l5.6,2.919a2.919,2.919,0,0,0,2.676,0l5.992-3.073Zm-6.727-5.238a1.248,1.248,0,0,1-1.148,0L2.4,8.525l12.93-6.712a1.248,1.248,0,0,1,1.148,0l13.1,6.717Z" transform="translate(51.999 271.827)"/></g></g></svg>