<svg xmlns="http://www.w3.org/2000/svg" xmlns:xlink="http://www.w3.org/1999/xlink" width="44" height="44" viewBox="0 0 44 44"><defs><style>.a{fill:#999;}.b{clip-path:url(#a);}.c{fill:none;stroke:#999;stroke-miterlimit:10;stroke-width:2.096px;}</style><clipPath id="a"><rect class="a" width="44" height="44" transform="translate(72.252 15)"/></clipPath></defs><g class="b" transform="translate(-72.252 -15)"><g transform="translate(72.252 15)"><path class="c" d="M40.228,11.771l-2.89,6.6a1.43,1.43,0,0,1-2.524.175l-9.343-15.3a1.42,1.42,0,0,0-1.956-.472,1.482,1.482,0,0,0-.506.533l-8.575,15.63a1.43,1.43,0,0,1-1.938.568,1.366,1.366,0,0,1-.463-.4L10.67,17.28a1.415,1.415,0,0,1-.279-.856V2.471A1.424,1.424,0,0,0,8.968,1.048h-6.5A1.424,1.424,0,0,0,1.048,2.471h0V41.529a1.424,1.424,0,0,0,1.423,1.423H41.529a1.424,1.424,0,0,0,1.423-1.423V12.338a1.424,1.424,0,0,0-1.423-1.423h0A1.42,1.42,0,0,0,40.228,11.771ZM9.4,36.5H9.038a1.424,1.424,0,0,1-1.423-1.423v-.009l.061-7.8A1.427,1.427,0,0,1,9.1,25.855H9.4a1.424,1.424,0,0,1,1.423,1.423v7.8A1.424,1.424,0,0,1,9.4,36.5Z"/></g></g></svg>