<svg xmlns="http://www.w3.org/2000/svg" xmlns:xlink="http://www.w3.org/1999/xlink" width="40" height="40" viewBox="0 0 40 40"><defs><style>.a{fill:#fff;}.b{clip-path:url(#a);}.c{fill:#00b696;}</style><clipPath id="a"><rect class="a" width="40" height="40" transform="translate(348 282)"/></clipPath></defs><g class="b" transform="translate(-348 -282)"><g transform="translate(338.869 272.866)"><path class="c" d="M11.031,23.587a.157.157,0,0,1-.051-.006c-.023,0-.04-.006-.063-.006s-.028-.006-.04-.006-.046-.006-.063-.011-.023-.006-.034-.006-.046-.011-.063-.017-.023-.006-.034-.006l-.063-.017c-.011-.006-.023-.006-.034-.011l-.057-.017a.105.105,0,0,0-.04-.011l-.051-.017-.046-.017-.046-.017c-.017-.006-.034-.017-.051-.023a.277.277,0,0,0-.04-.017c-.017-.011-.034-.017-.051-.028l-.034-.017c-.017-.011-.04-.023-.057-.034s-.017-.011-.028-.017-.04-.023-.057-.034-.017-.011-.028-.017a.312.312,0,0,1-.051-.04.124.124,0,0,1-.028-.023.153.153,0,0,1-.046-.04c-.011-.011-.028-.023-.04-.034a.151.151,0,0,0-.034-.028,1.678,1.678,0,0,1-.142-.142.151.151,0,0,1-.028-.034c-.011-.011-.023-.028-.034-.04a.153.153,0,0,0-.04-.046.124.124,0,0,0-.023-.028.313.313,0,0,0-.04-.051c-.006-.011-.011-.017-.017-.028s-.023-.04-.034-.057-.011-.017-.017-.028-.023-.04-.034-.057l-.017-.034c-.011-.017-.017-.034-.028-.051l-.017-.034c-.006-.017-.017-.034-.023-.051s-.011-.028-.017-.046-.011-.028-.017-.046l-.017-.051a.105.105,0,0,1-.011-.04c-.006-.017-.011-.04-.017-.057s-.006-.023-.011-.034-.011-.04-.017-.063-.006-.023-.006-.034a.294.294,0,0,1-.011-.063c0-.011-.006-.023-.006-.034s-.006-.046-.011-.063-.006-.028-.006-.04-.006-.04-.006-.063a.157.157,0,0,0-.006-.051.111.111,0,0,0-.006-.046,1.231,1.231,0,0,1,0-.2.111.111,0,0,1,.006-.046.157.157,0,0,1,.006-.051c0-.023.006-.04.006-.063s.006-.028.006-.04.006-.046.011-.063.006-.023.006-.034a.294.294,0,0,0,.011-.063c0-.011.006-.023.006-.034s.011-.04.017-.063.006-.023.011-.034.011-.04.017-.057a.105.105,0,0,0,.011-.04l.017-.051c.006-.017.011-.028.017-.046s.011-.028.017-.046.017-.034.023-.051l.017-.034c.011-.017.017-.034.028-.051l.017-.034c.011-.017.023-.04.034-.057s.011-.017.017-.028.023-.04.034-.057.011-.017.017-.028a.313.313,0,0,1,.04-.051.124.124,0,0,1,.023-.028.153.153,0,0,1,.04-.046c.011-.011.023-.028.034-.04l.034-.034c.023-.023.046-.051.068-.074l10.1-10.1a2.043,2.043,0,0,1,2.9,0h0a2.043,2.043,0,0,1,0,2.9l-6.6,6.6H47.083a2.047,2.047,0,0,1,2.048,2.048h0A2.047,2.047,0,0,1,47.083,23.6h-36A.524.524,0,0,0,11.031,23.587Z"/><path class="c" d="M47.225,34.669a.158.158,0,0,1,.051.006c.023,0,.04.006.063.006s.028.006.04.006.046.006.063.011.023.006.034.006.046.011.063.017.023.006.034.006l.063.017c.011.006.023.006.034.011l.057.017a.106.106,0,0,0,.04.011l.051.017.046.017.046.017c.017.006.034.017.051.023a.277.277,0,0,0,.04.017c.017.011.034.017.051.028l.034.017c.017.011.04.023.057.034s.017.011.028.017.04.023.057.034.017.011.028.017a.313.313,0,0,1,.051.04.124.124,0,0,1,.028.023.153.153,0,0,1,.046.04c.011.011.028.023.04.034a.151.151,0,0,0,.034.028,1.677,1.677,0,0,1,.142.142.151.151,0,0,1,.028.034c.011.011.023.028.034.04a.153.153,0,0,0,.04.046.124.124,0,0,0,.023.028.313.313,0,0,0,.04.051c.006.011.011.017.017.028s.023.04.034.057.011.017.017.028.023.04.034.057l.017.034c.011.017.017.034.028.051l.017.034c.006.017.017.034.023.051s.011.028.017.046.011.028.017.046l.017.051a.106.106,0,0,1,.011.04c.006.017.011.04.017.057s.006.023.011.034.011.04.017.063.006.023.006.034a.294.294,0,0,1,.011.063c0,.011.006.023.006.034s.006.046.011.063.006.028.006.04.006.04.006.063a.158.158,0,0,0,.006.051.111.111,0,0,0,.006.046,1.231,1.231,0,0,1,0,.2.111.111,0,0,1-.006.046.158.158,0,0,1-.006.051c0,.023-.006.04-.006.063s-.006.028-.006.04-.006.046-.011.063-.006.023-.006.034a.294.294,0,0,0-.011.063c0,.011-.006.023-.006.034s-.011.04-.017.063-.006.023-.011.034-.011.04-.017.057a.105.105,0,0,0-.011.04l-.017.051c-.006.017-.011.028-.017.046s-.011.028-.017.046-.017.034-.023.051l-.017.034c-.011.017-.017.034-.028.051l-.017.034c-.011.017-.023.04-.034.057s-.011.017-.017.028-.023.04-.034.057-.011.017-.017.028a.313.313,0,0,1-.04.051.124.124,0,0,1-.023.028.153.153,0,0,1-.04.046c-.011.011-.023.028-.034.04l-.034.034c-.023.023-.046.051-.068.074L38.43,48.255a2.043,2.043,0,0,1-2.9,0h0a2.043,2.043,0,0,1,0-2.9l6.6-6.6H11.179a2.047,2.047,0,0,1-2.048-2.048h0a2.047,2.047,0,0,1,2.048-2.048h36A.111.111,0,0,1,47.225,34.669Z"/></g></g></svg>