<svg xmlns="http://www.w3.org/2000/svg" xmlns:xlink="http://www.w3.org/1999/xlink" width="44" height="44" viewBox="0 0 44 44"><defs><style>.a{fill:#6190e8;}.b{clip-path:url(#a);}.c{fill:#00b696;}</style><clipPath id="a"><rect class="a" width="44" height="44" transform="translate(72.252 15)"/></clipPath></defs><g class="b" transform="translate(-72.252 -15)"><g transform="translate(72.252 15)"><path class="c" d="M40.558,0H3.442A3.442,3.442,0,0,0,0,3.442V40.558A3.442,3.442,0,0,0,3.442,44H40.558A3.442,3.442,0,0,0,44,40.558V3.442A3.442,3.442,0,0,0,40.558,0ZM22,5.867a6.417,6.417,0,1,1-6.417,6.417A6.417,6.417,0,0,1,22,5.867ZM10.45,33.092a10.936,10.936,0,0,1,4.422-8.741,11.846,11.846,0,0,1,14.054-.082,10.943,10.943,0,0,1,4.532,8.823C33.458,39.218,10.45,39.218,10.45,33.092Z"/></g></g></svg>