<svg xmlns="http://www.w3.org/2000/svg" xmlns:xlink="http://www.w3.org/1999/xlink" width="34" height="34" viewBox="0 0 34 34"><defs><style>.a{fill:#e5e5e5;}.b{clip-path:url(#a);}.c{fill:#b4b4b4;}</style><clipPath id="a"><rect class="a" width="34" height="34" transform="translate(30 30)"/></clipPath></defs><g class="b" transform="translate(-30 -30)"><path class="c" d="M31.006,2.45H7.894A3.048,3.048,0,0,0,4.855,5.489V33.411A3.048,3.048,0,0,0,7.894,36.45H31a3.048,3.048,0,0,0,3.039-3.039V5.489A3.042,3.042,0,0,0,31.006,2.45ZM25.532,5.508V11.7l-1.284-.878a1.523,1.523,0,0,0-1.717,0l-1.284.878V5.508ZM7.894,33.4V5.493l0,0h4.141V33.411H7.9a.012.012,0,0,0,0-.008Zm23.112,0,0,0H15.085V5.486h3.126V14.58a1.519,1.519,0,0,0,2.378,1.254l2.8-1.918,2.8,1.918a1.518,1.518,0,0,0,2.378-1.254V5.489H31l0,0,0,27.91Z" transform="translate(27.552 27.55)"/></g></svg>